<svg width="15" height="15" viewBox="0 0 15 15" fill="none" xmlns="http://www.w3.org/2000/svg">
<path fill-rule="evenodd" clip-rule="evenodd" d="M3 0C1.34315 0 0 1.34315 0 3V12C0 13.6569 1.34315 15 3 15H12C13.6569 15 15 13.6569 15 12V3C15 1.34315 13.6569 0 12 0H3ZM6.45833 8.81476C6.45833 9.54138 7.01869 10.1302 7.70866 10.1302C8.39863 10.1302 8.95833 9.54138 8.95833 8.81476C8.95833 8.08884 8.39863 7.49998 7.70866 7.49998C7.01869 7.49998 6.45833 8.08884 6.45833 8.81476ZM6.00344 3.13124V6.38008C6.83083 5.5739 7.74221 5.5739 7.74221 5.5739C10.5183 5.5739 10.625 8.69585 10.625 8.69585C10.625 11.775 7.74221 11.8812 7.74221 11.8812C6.51213 11.8812 6.02478 10.9992 6.02478 10.9992V11.6681H4.37502V3.13124H6.00344Z" fill="white"/>
</svg>
