<svg width="56" height="50" viewBox="0 0 56 50" fill="none" xmlns="http://www.w3.org/2000/svg">
<circle cx="25" cy="25" r="25" fill="#EEEEEE"/>
<path fill-rule="evenodd" clip-rule="evenodd" d="M38.0004 19.5833C38.0004 15.3952 34.6053 12 30.4171 12H19.5838C15.3956 12 12.0004 15.3952 12.0004 19.5833V30.4167C12.0004 34.6048 15.3956 38 19.5838 38H30.4171C34.6053 38 38.0004 34.6048 38.0004 30.4167V19.5833ZM19.5838 14.275H30.4171L30.6536 14.2802C33.4755 14.4039 35.7254 16.7309 35.7254 19.5833V30.4167L35.7203 30.6531C35.5966 33.4751 33.2696 35.725 30.4171 35.725H19.5838L19.3473 35.7198C16.5253 35.5961 14.2754 33.2691 14.2754 30.4167V19.5833L14.2806 19.3469C14.4043 16.5249 16.7313 14.275 19.5838 14.275Z" fill="white"/>
<path fill-rule="evenodd" clip-rule="evenodd" d="M18.4466 25.0631C18.412 21.4424 21.3169 18.4799 24.9372 18.4453L25.1829 18.4475C28.6899 18.5431 31.5205 21.3985 31.5543 24.9353C31.5889 28.5555 28.6846 31.517 25.0638 31.553C21.4446 31.5876 18.4827 28.6826 18.4466 25.0631ZM29.2794 24.957C29.2568 22.5947 27.3223 20.6976 24.9589 20.7202L24.7387 20.7279C22.4786 20.8641 20.6996 22.7507 20.7215 25.0409C20.745 27.404 22.679 29.3007 25.0416 29.2781C27.4059 29.2546 29.302 27.3212 29.2794 24.957Z" fill="white"/>
<path fill-rule="evenodd" clip-rule="evenodd" d="M33.667 17.9429C33.676 18.8403 32.9556 19.575 32.0582 19.5839C31.1608 19.5928 30.4261 18.8724 30.4172 17.9751C30.4083 17.0777 31.1287 16.3412 32.026 16.3341C32.9234 16.3251 33.6581 17.0455 33.667 17.9429Z" fill="white"/>
<circle cx="47" cy="41" r="9" fill="#C4C4C4"/>
<path d="M46.7428 45.0342H47.8779V41.8042H51.0345V40.8012H47.8779V37.5859H46.7428V40.8012H43.5862V41.8042H46.7428V45.0342Z" fill="white"/>
</svg>
