<svg width="56" height="50" viewBox="0 0 56 50" fill="none" xmlns="http://www.w3.org/2000/svg">
<circle cx="25" cy="25" r="25" fill="#EEEEEE"/>
<path d="M38.4441 18.8503C38.1329 17.6113 37.2209 16.6347 36.0645 16.301C33.9516 15.6816 25.5002 15.6816 25.5002 15.6816C25.5002 15.6816 17.0489 15.6816 14.936 16.2774C13.8018 16.6108 12.8677 17.6115 12.5564 18.8503C12.0004 21.1133 12.0004 25.8066 12.0004 25.8066C12.0004 25.8066 12.0004 30.5236 12.5564 32.763C12.8679 34.0018 13.7796 34.9786 14.9362 35.3123C17.0711 35.9316 25.5004 35.9316 25.5004 35.9316C25.5004 35.9316 33.9516 35.9316 36.0645 35.3359C37.2212 35.0025 38.1329 34.0256 38.4443 32.7869C39.0003 30.5236 39.0003 25.8305 39.0003 25.8305C39.0003 25.8305 39.0226 21.1133 38.4441 18.8503Z" fill="white"/>
<path d="M22.5657 29.6315C22.5657 29.9355 22.8912 30.1284 23.1578 29.9824L30.1424 26.1575C30.4196 26.0057 30.4196 25.6076 30.1424 25.4558L23.1578 21.6309C22.8912 21.4849 22.5657 21.6778 22.5657 21.9817V29.6315Z" fill="#DDDDDD"/>
<circle cx="47" cy="41" r="9" fill="#C4C4C4"/>
<path d="M46.7428 45.0342H47.8779V41.8042H51.0345V40.8012H47.8779V37.5859H46.7428V40.8012H43.5862V41.8042H46.7428V45.0342Z" fill="white"/>
</svg>
