<svg width="56" height="50" viewBox="0 0 56 50" fill="none" xmlns="http://www.w3.org/2000/svg">
<circle cx="25" cy="25" r="25" fill="#EEEEEE"/>
<path fill-rule="evenodd" clip-rule="evenodd" d="M27.7629 31.3999C25.9492 31.3999 24.4763 29.8552 24.4763 27.949C24.4763 26.0447 25.9492 24.4999 27.7629 24.4999C29.5765 24.4999 31.0477 26.0447 31.0477 27.949C31.0477 29.8552 29.5765 31.3999 27.7629 31.3999ZM23.2803 21.5398V13H18.9999V35.4399H23.3364V33.6815C23.3364 33.6815 24.6174 36 27.8508 36C27.8508 36 35.4284 35.7208 35.4284 27.627C35.4284 27.627 35.148 19.4207 27.8508 19.4207C27.8508 19.4207 25.4552 19.4207 23.2803 21.5398Z" fill="white"/>
<circle cx="47" cy="41" r="9" fill="#C4C4C4"/>
<path d="M46.7428 45.0342H47.8779V41.8042H51.0345V40.8012H47.8779V37.5859H46.7428V40.8012H43.5862V41.8042H46.7428V45.0342Z" fill="white"/>
</svg>
