<svg width="28" height="22" viewBox="0 0 28 22" fill="none" xmlns="http://www.w3.org/2000/svg">
<g clip-path="url(#clip0_9822_32476)">
<path d="M27.4169 4.12288C27.2569 3.51765 26.9441 2.96584 26.5097 2.5226C26.0753 2.07936 25.5345 1.7602 24.9414 1.59701C22.7563 0.990235 14 0.990234 14 0.990234C14 0.990234 5.24136 0.990235 3.06092 1.5876C2.46645 1.75117 1.92468 2.0716 1.49012 2.51666C1.05556 2.96171 0.743538 3.5157 0.585445 4.12288C-1.53869e-06 6.35006 0 10.9996 0 10.9996C0 10.9996 -1.53869e-06 15.6492 0.585445 17.8764C0.744951 18.4818 1.0576 19.0339 1.49207 19.4772C1.92653 19.9205 2.46755 20.2395 3.06092 20.4023C5.24366 20.9996 14 20.9996 14 20.9996C14 20.9996 22.7586 20.9996 24.9414 20.4023C25.5345 20.2391 26.0753 19.9199 26.5097 19.4767C26.9441 19.0334 27.2569 18.4816 27.4169 17.8764C28 15.6492 28 10.9996 28 10.9996C28 10.9996 27.9931 6.35006 27.4169 4.12288Z" fill="#FF0000"/>
<path d="M11.1995 15.2849L18.4761 10.9999L11.1995 6.71484V15.2849Z" fill="white"/>
</g>
<defs>
<clipPath id="clip0_9822_32476">
<rect width="28" height="22" fill="white"/>
</clipPath>
</defs>
</svg>
