<svg width="50" height="50" viewBox="0 0 50 50" fill="none" xmlns="http://www.w3.org/2000/svg">
<path fill-rule="evenodd" clip-rule="evenodd" d="M33 14H18C16.3431 14 15 15.3431 15 17V32C15 33.6569 16.3431 35 18 35H33C34.6569 35 36 33.6569 36 32V17C36 15.3431 34.6569 14 33 14ZM18 12C15.2386 12 13 14.2386 13 17V32C13 34.7614 15.2386 37 18 37H33C35.7614 37 38 34.7614 38 32V17C38 14.2386 35.7614 12 33 12H18Z" fill="black"/>
<path fill-rule="evenodd" clip-rule="evenodd" d="M23.7416 21.7758L24.7341 20.2741C25.6476 18.8918 27.5087 18.5118 28.891 19.4253C30.2732 20.3388 30.6532 22.1999 29.7397 23.5822L28.7473 25.0839L30.4158 26.1866L31.4083 24.6848C32.9308 22.3811 32.2974 19.2792 29.9936 17.7567C27.6899 16.2342 24.588 16.8676 23.0655 19.1714L22.0731 20.6731L23.7416 21.7758ZM22.6389 23.4444L20.9704 22.3417L19.7575 24.177C18.235 26.4808 18.8683 29.5827 21.1721 31.1052C23.4759 32.6277 26.5777 31.9943 28.1002 29.6905L29.3132 27.8551L27.6446 26.7524L26.4317 28.5878C25.5182 29.9701 23.6571 30.3501 22.2748 29.4366C20.8925 28.5231 20.5125 26.662 21.426 25.2797L22.6389 23.4444Z" fill="black"/>
<path fill-rule="evenodd" clip-rule="evenodd" d="M27.6942 21.5514C28.1549 21.8559 28.2816 22.4763 27.9771 22.9371L25.2204 27.1084C24.9159 27.5692 24.2955 27.6959 23.8347 27.3914C23.374 27.0869 23.2473 26.4665 23.5518 26.0057L26.3085 21.8344C26.613 21.3736 27.2334 21.2469 27.6942 21.5514Z" fill="black"/>
</svg>
