<svg width="50" height="50" viewBox="0 0 50 50" fill="none" xmlns="http://www.w3.org/2000/svg">
<path fill-rule="evenodd" clip-rule="evenodd" d="M25 17H9.00001C7.34315 17 6 18.3431 6 20V26C6 27.6569 7.34315 29 9.00001 29H24.9999C24.4578 28.4281 23.9937 27.7528 23.6294 27H9.00001C8.44773 27 8.00001 26.5523 8.00001 26V20C8.00001 19.4477 8.44773 19 9.00001 19H23.6294C23.9938 18.2472 24.4578 17.5719 25 17Z" fill="black"/>
<path fill-rule="evenodd" clip-rule="evenodd" d="M33 29C36.3137 29 39 26.3137 39 23C39 19.6863 36.3137 17 33 17C29.6863 17 27 19.6863 27 23C27 26.3137 29.6863 29 33 29ZM33 31C37.4183 31 41 27.4183 41 23C41 18.5817 37.4183 15 33 15C28.5817 15 25 18.5817 25 23C25 27.4183 28.5817 31 33 31Z" fill="black"/>
<path fill-rule="evenodd" clip-rule="evenodd" d="M37.1351 27.7714C37.4665 27.3296 38.0933 27.2401 38.5351 27.5714L44.1732 31.8C44.615 32.1314 44.7046 32.7582 44.3732 33.2C44.0418 33.6418 43.415 33.7314 42.9732 33.4L37.3351 29.1714C36.8933 28.8401 36.8037 28.2133 37.1351 27.7714Z" fill="black"/>
<path d="M13 23C13 23.5523 12.5523 24 12 24C11.4477 24 11 23.5523 11 23C11 22.4477 11.4477 22 12 22C12.5523 22 13 22.4477 13 23Z" fill="black"/>
<path d="M17 23C17 23.5523 16.5523 24 16 24C15.4477 24 15 23.5523 15 23C15 22.4477 15.4477 22 16 22C16.5523 22 17 22.4477 17 23Z" fill="black"/>
<path d="M21 23C21 23.5523 20.5523 24 20 24C19.4477 24 19 23.5523 19 23C19 22.4477 19.4477 22 20 22C20.5523 22 21 22.4477 21 23Z" fill="black"/>
</svg>
