<svg width="50" height="50" viewBox="0 0 50 50" fill="none" xmlns="http://www.w3.org/2000/svg">
<path fill-rule="evenodd" clip-rule="evenodd" d="M36 19H12V17H36V19Z" fill="black"/>
<path fill-rule="evenodd" clip-rule="evenodd" d="M18.0005 16.9999L20.0005 11.9999L21.8574 12.7427L19.8574 17.7427L18.0005 16.9999Z" fill="black"/>
<path fill-rule="evenodd" clip-rule="evenodd" d="M25.0005 16.9999L27.0005 11.9999L28.8574 12.7427L26.8574 17.7427L25.0005 16.9999Z" fill="black"/>
<path fill-rule="evenodd" clip-rule="evenodd" d="M34 37C36.7614 37 39 34.7614 39 32C39 29.2386 36.7614 27 34 27C31.2386 27 29 29.2386 29 32C29 34.7614 31.2386 37 34 37ZM34 39C37.866 39 41 35.866 41 32C41 28.134 37.866 25 34 25C30.134 25 27 28.134 27 32C27 35.866 30.134 39 34 39Z" fill="black"/>
<path fill-rule="evenodd" clip-rule="evenodd" d="M16 13H31C32.6569 13 34 14.3431 34 16V25C34.695 25 35.3663 25.1013 36 25.2899V16C36 13.2386 33.7614 11 31 11H16C13.2386 11 11 13.2386 11 16V31C11 33.7614 13.2386 36 16 36H28.2547C27.8334 35.396 27.5049 34.7224 27.2899 34H16C14.3431 34 13 32.6569 13 31V16C13 14.3431 14.3431 13 16 13Z" fill="black"/>
<path fill-rule="evenodd" clip-rule="evenodd" d="M34 29C34.5523 29 35 29.4477 35 30V34C35 34.5523 34.5523 35 34 35C33.4477 35 33 34.5523 33 34V30C33 29.4477 33.4477 29 34 29Z" fill="black"/>
<path fill-rule="evenodd" clip-rule="evenodd" d="M31 32C31 31.4477 31.4477 31 32 31H36C36.5523 31 37 31.4477 37 32C37 32.5523 36.5523 33 36 33H32C31.4477 33 31 32.5523 31 32Z" fill="black"/>
<path fill-rule="evenodd" clip-rule="evenodd" d="M25 26L22 24.268L22 27.7321L25 26ZM27.5 26.866C28.1667 26.4811 28.1667 25.5189 27.5 25.134L21.5 21.6699C20.8333 21.285 20 21.7661 20 22.5359L20 29.4641C20 30.2339 20.8333 30.715 21.5 30.3301L27.5 26.866Z" fill="black"/>
</svg>
